<mxfile host="app.diagrams.net" modified="2023-12-19T16:14:47.631Z" agent="Mozilla/5.0 (Windows NT 10.0; Win64; x64) AppleWebKit/537.36 (KHTML, like Gecko) Chrome/119.0.0.0 Safari/537.36 Edg/119.0.0.0" etag="Ukv0NYOBFWWKY26m46yw" version="22.1.11" type="github">
  <diagram id="C5RBs43oDa-KdzZeNtuy" name="Page-1">
    <mxGraphModel dx="1379" dy="793" grid="1" gridSize="10" guides="1" tooltips="1" connect="1" arrows="1" fold="1" page="1" pageScale="1" pageWidth="827" pageHeight="1169" math="0" shadow="0">
      <root>
        <mxCell id="WIyWlLk6GJQsqaUBKTNV-0" />
        <mxCell id="WIyWlLk6GJQsqaUBKTNV-1" parent="WIyWlLk6GJQsqaUBKTNV-0" />
        <mxCell id="RZHPMvWWwwaEwOmzHGfO-16" value="" style="group" vertex="1" connectable="0" parent="WIyWlLk6GJQsqaUBKTNV-1">
          <mxGeometry x="170" y="230" width="540" height="430" as="geometry" />
        </mxCell>
        <mxCell id="RZHPMvWWwwaEwOmzHGfO-0" value="Foundation models" style="ellipse;whiteSpace=wrap;html=1;aspect=fixed;" vertex="1" parent="RZHPMvWWwwaEwOmzHGfO-16">
          <mxGeometry x="200" y="119.44444444444444" width="156.52910052910053" height="156.52910052910053" as="geometry" />
        </mxCell>
        <mxCell id="RZHPMvWWwwaEwOmzHGfO-1" value="" style="endArrow=classic;html=1;rounded=0;" edge="1" parent="RZHPMvWWwwaEwOmzHGfO-16">
          <mxGeometry width="50" height="50" relative="1" as="geometry">
            <mxPoint x="340.00000000000006" y="119.44444444444444" as="sourcePoint" />
            <mxPoint x="440" as="targetPoint" />
          </mxGeometry>
        </mxCell>
        <mxCell id="RZHPMvWWwwaEwOmzHGfO-8" value="" style="endArrow=classic;html=1;rounded=0;" edge="1" parent="RZHPMvWWwwaEwOmzHGfO-16">
          <mxGeometry width="50" height="50" relative="1" as="geometry">
            <mxPoint x="340.00000000000006" y="310.55555555555554" as="sourcePoint" />
            <mxPoint x="440" y="430" as="targetPoint" />
          </mxGeometry>
        </mxCell>
        <mxCell id="RZHPMvWWwwaEwOmzHGfO-9" value="" style="endArrow=classic;html=1;rounded=0;" edge="1" parent="RZHPMvWWwwaEwOmzHGfO-16">
          <mxGeometry width="50" height="50" relative="1" as="geometry">
            <mxPoint x="200" y="143.33333333333334" as="sourcePoint" />
            <mxPoint x="100" y="23.88888888888889" as="targetPoint" />
          </mxGeometry>
        </mxCell>
        <mxCell id="RZHPMvWWwwaEwOmzHGfO-12" value="" style="endArrow=classic;html=1;rounded=0;" edge="1" parent="RZHPMvWWwwaEwOmzHGfO-16">
          <mxGeometry width="50" height="50" relative="1" as="geometry">
            <mxPoint x="200" y="286.6666666666667" as="sourcePoint" />
            <mxPoint x="100" y="406.11111111111114" as="targetPoint" />
          </mxGeometry>
        </mxCell>
        <mxCell id="RZHPMvWWwwaEwOmzHGfO-13" value="" style="endArrow=classic;html=1;rounded=0;" edge="1" parent="RZHPMvWWwwaEwOmzHGfO-16">
          <mxGeometry width="50" height="50" relative="1" as="geometry">
            <mxPoint x="380" y="215" as="sourcePoint" />
            <mxPoint x="540" y="215" as="targetPoint" />
          </mxGeometry>
        </mxCell>
        <mxCell id="RZHPMvWWwwaEwOmzHGfO-14" value="" style="endArrow=classic;html=1;rounded=0;" edge="1" parent="RZHPMvWWwwaEwOmzHGfO-16">
          <mxGeometry width="50" height="50" relative="1" as="geometry">
            <mxPoint x="160" y="213.80555555555557" as="sourcePoint" />
            <mxPoint y="213.80555555555557" as="targetPoint" />
          </mxGeometry>
        </mxCell>
        <mxCell id="RZHPMvWWwwaEwOmzHGfO-17" value="Generative AI" style="ellipse;whiteSpace=wrap;html=1;aspect=fixed;" vertex="1" parent="WIyWlLk6GJQsqaUBKTNV-1">
          <mxGeometry x="600" y="150" width="80" height="80" as="geometry" />
        </mxCell>
        <mxCell id="RZHPMvWWwwaEwOmzHGfO-18" value="Chemistry" style="ellipse;whiteSpace=wrap;html=1;aspect=fixed;" vertex="1" parent="WIyWlLk6GJQsqaUBKTNV-1">
          <mxGeometry x="210" y="170" width="80" height="80" as="geometry" />
        </mxCell>
        <mxCell id="RZHPMvWWwwaEwOmzHGfO-19" value="LLMs" style="ellipse;whiteSpace=wrap;html=1;aspect=fixed;" vertex="1" parent="WIyWlLk6GJQsqaUBKTNV-1">
          <mxGeometry x="70" y="405" width="80" height="80" as="geometry" />
        </mxCell>
        <mxCell id="RZHPMvWWwwaEwOmzHGfO-20" value="Vision" style="ellipse;whiteSpace=wrap;html=1;aspect=fixed;" vertex="1" parent="WIyWlLk6GJQsqaUBKTNV-1">
          <mxGeometry x="220" y="640" width="80" height="80" as="geometry" />
        </mxCell>
        <mxCell id="RZHPMvWWwwaEwOmzHGfO-21" value="Climate" style="ellipse;whiteSpace=wrap;html=1;aspect=fixed;" vertex="1" parent="WIyWlLk6GJQsqaUBKTNV-1">
          <mxGeometry x="580" y="670" width="80" height="80" as="geometry" />
        </mxCell>
        <mxCell id="RZHPMvWWwwaEwOmzHGfO-22" value="Code" style="ellipse;whiteSpace=wrap;html=1;aspect=fixed;" vertex="1" parent="WIyWlLk6GJQsqaUBKTNV-1">
          <mxGeometry x="720" y="405" width="80" height="80" as="geometry" />
        </mxCell>
      </root>
    </mxGraphModel>
  </diagram>
</mxfile>
